# xmcd CD database file
#
# Track frame offsets:
#	150
#	18212
#	63877
#	118747
#	170060
#
# Disc length: 3339 seconds
#
# Revision: 0
# Processed by: cddbd v1.5.2PL0 Copyright (c) Steve Scherf et al.
# Submitted via: CDex 1.50
#
DISCID=3a0d0905
DTITLE=Freddie Hubbard and Jimmy Heath - Jam Gems
DYEAR=1965
DGENRE=Jazz
TTITLE0=All Members
TTITLE1=Bluesville
TTITLE2=Lover Man
TTITLE3=What is this thing called Love ?
TTITLE4=Autumn Leaves
EXTD=YEAR: 1965
EXTT0=
EXTT1=
EXTT2=
EXTT3=
EXTT4=
PLAYORDER=
